ffmpeg started on 2025-05-12 at 17:21:57
Report written to "D:\Convert\FFMetrics\reports\ssim_report-6.txt"
Log level: 32
Command line:
ffmpeg -hide_banner -nostdin -i "G:\\\xc0\xed\xe8\xec\xe5\\\xce\xed\xe3\xee\xe8\xed\xe3\xe8\\!_35_\xcb\xe5\xf2\xee_2024\\DreamCast\\\xce\xef\xe5\xf0\xe0\xf6\xe8\xff - \xd1\xe5\xec\xe5\xe9\xea\xe0 \xa8\xe4\xe7\xe0\xea\xf3\xf0\xe0\\[DC] Yozakura-san Chi no Daisakusen - 11_Telegram_HEVC.mkv" -i "G:\\\xc0\xed\xe8\xec\xe5\\\xce\xed\xe3\xee\xe8\xed\xe3\xe8\\!_35_\xcb\xe5\xf2\xee_2024\\DreamCast\\\xce\xef\xe5\xf0\xe0\xf6\xe8\xff - \xd1\xe5\xec\xe5\xe9\xea\xe0 \xa8\xe4\xe7\xe0\xea\xf3\xf0\xe0\\[DC] Yozakura-san Chi no Daisakusen - 11_Telegram.mp4" -lavfi "[0:v]settb=AVTB,setpts=PTS-STARTPTS,format=pix_fmts=yuv420p10,fps=24000/1001,scale=1920:1080:flags=bicubic[main];[1:v]settb=AVTB,setpts=PTS-STARTPTS,format=pix_fmts=yuv420p,fps=24000/1001,scale=1920:1080:flags=bicubic[ref];[main][ref]ssim=eof_action=endall:stats_file='D\\:/Convert/FFMetrics/logs/ssim_logfile-6.txt'" -f null -
Input #0, matroska,webm, from 'G:\Аниме\Онгоинги\!_35_Лето_2024\DreamCast\Операция - Семейка Ёдзакура\[DC] Yozakura-san Chi no Daisakusen - 11_Telegram_HEVC.mkv':
  Metadata:
    COMPATIBLE_BRANDS: isomiso2avc1mp41
    MAJOR_BRAND     : isom
    MINOR_VERSION   : 512
    ENCODER         : Lavf61.7.100
  Duration: 00:23:56.72, start: -0.021000, bitrate: 1537 kb/s
  Stream #0:0: Video: hevc (Main 10), yuv420p10le(tv, bt709, progressive), 1920x1080 [SAR 1:1 DAR 16:9], 23.98 fps, 23.98 tbr, 1k tbn (default)
      Metadata:
        HANDLER_NAME    : VideoHandler
        VENDOR_ID       : [0][0][0][0]
        ENCODER         : Lavc61.19.100 libx265
        BPS             : 1342548
        DURATION        : 00:23:53.598708333
        NUMBER_OF_FRAMES: 34372
        NUMBER_OF_BYTES : 240584316
        _STATISTICS_WRITING_APP: mkvpropedit v66.0.0 ('Josie') 64-bit
        _STATISTICS_WRITING_DATE_UTC: 2025-05-08 14:31:57
        _STATISTICS_TAGS: BPS DURATION NUMBER_OF_FRAMES NUMBER_OF_BYTES
  Stream #0:1: Audio: aac (LC), 48000 Hz, stereo, fltp (default)
      Metadata:
        HANDLER_NAME    : SoundHandler
        VENDOR_ID       : [0][0][0][0]
        ENCODER         : Lavc61.19.100 aac
        BPS             : 193366
        DURATION        : 00:23:56.714000000
        NUMBER_OF_FRAMES: 67347
        NUMBER_OF_BYTES : 34726463
        _STATISTICS_WRITING_APP: mkvpropedit v66.0.0 ('Josie') 64-bit
        _STATISTICS_WRITING_DATE_UTC: 2025-05-08 14:31:57
        _STATISTICS_TAGS: BPS DURATION NUMBER_OF_FRAMES NUMBER_OF_BYTES
Input #1, mov,mp4,m4a,3gp,3g2,mj2, from 'G:\Аниме\Онгоинги\!_35_Лето_2024\DreamCast\Операция - Семейка Ёдзакура\[DC] Yozakura-san Chi no Daisakusen - 11_Telegram.mp4':
  Metadata:
    major_brand     : isom
    minor_version   : 512
    compatible_brands: isomiso2avc1mp41
    encoder         : Lavf60.16.100
  Duration: 00:23:56.66, start: 0.000000, bitrate: 3683 kb/s
  Stream #1:0[0x1](und): Video: h264 (High) (avc1 / 0x31637661), yuv420p(tv, bt709, progressive), 1920x1080 [SAR 1:1 DAR 16:9], 3543 kb/s, 23.98 fps, 23.98 tbr, 24k tbn (default)
      Metadata:
        handler_name    : VideoHandler
        vendor_id       : [0][0][0][0]
        encoder         : Lavc60.31.102 h264_qsv
  Stream #1:1[0x2](und): Audio: aac (HE-AACv2) (mp4a / 0x6134706D), 48000 Hz, stereo, fltp, 144 kb/s (default)
      Metadata:
        handler_name    : SoundHandler
        vendor_id       : [0][0][0][0]
Stream mapping:
  Stream #0:0 (hevc) -> settb:default
  Stream #1:0 (h264) -> settb:default
  ssim:default -> Stream #0:0 (wrapped_avframe)
  Stream #0:1 -> #0:1 (aac (native) -> pcm_s16le (native))
Output #0, null, to 'pipe:':
  Metadata:
    COMPATIBLE_BRANDS: isomiso2avc1mp41
    MAJOR_BRAND     : isom
    MINOR_VERSION   : 512
    encoder         : Lavf61.7.100
  Stream #0:0: Video: wrapped_avframe, yuv420p10le(tv, bt709, progressive), 1920x1080 [SAR 1:1 DAR 16:9], q=2-31, 200 kb/s, 23.98 fps, 23.98 tbn
      Metadata:
        encoder         : Lavc61.19.100 wrapped_avframe
  Stream #0:1: Audio: pcm_s16le, 48000 Hz, stereo, s16, 1536 kb/s (default)
      Metadata:
        HANDLER_NAME    : SoundHandler
        VENDOR_ID       : [0][0][0][0]
        _STATISTICS_TAGS: BPS DURATION NUMBER_OF_FRAMES NUMBER_OF_BYTES
        BPS             : 193366
        DURATION        : 00:23:56.714000000
        NUMBER_OF_FRAMES: 67347
        NUMBER_OF_BYTES : 34726463
        _STATISTICS_WRITING_APP: mkvpropedit v66.0.0 ('Josie') 64-bit
        _STATISTICS_WRITING_DATE_UTC: 2025-05-08 14:31:57
        encoder         : Lavc61.19.100 pcm_s16le
frame=  155 fps=0.0 q=-0.0 size=N/A time=00:00:06.46 bitrate=N/A speed=12.6x    frame=  346 fps=336 q=-0.0 size=N/A time=00:00:14.43 bitrate=N/A speed=  14x    frame=  546 fps=353 q=-0.0 size=N/A time=00:00:22.77 bitrate=N/A speed=14.7x    frame=  796 fps=386 q=-0.0 size=N/A time=00:00:33.19 bitrate=N/A speed=16.1x    frame= 1052 fps=410 q=-0.0 size=N/A time=00:00:43.91 bitrate=N/A speed=17.1x    frame= 1295 fps=419 q=-0.0 size=N/A time=00:00:54.01 bitrate=N/A speed=17.5x    frame= 1515 fps=421 q=-0.0 size=N/A time=00:01:03.18 bitrate=N/A speed=17.6x    frame= 1738 fps=422 q=-0.0 size=N/A time=00:01:12.48 bitrate=N/A speed=17.6x    frame= 1976 fps=426 q=-0.0 size=N/A time=00:01:22.41 bitrate=N/A speed=17.8x    frame= 2171 fps=422 q=-0.0 size=N/A time=00:01:30.54 bitrate=N/A speed=17.6x    frame= 2397 fps=423 q=-0.0 size=N/A time=00:01:39.97 bitrate=N/A speed=17.6x    frame= 2597 fps=420 q=-0.0 size=N/A time=00:01:48.31 bitrate=N/A speed=17.5x    frame= 2778 fps=415 q=-0.0 size=N/A time=00:01:55.86 bitrate=N/A speed=17.3x    frame= 2955 fps=410 q=-0.0 size=N/A time=00:02:03.24 bitrate=N/A speed=17.1x    frame= 3114 fps=403 q=-0.0 size=N/A time=00:02:09.87 bitrate=N/A speed=16.8x    frame= 3280 fps=398 q=-0.0 size=N/A time=00:02:16.80 bitrate=N/A speed=16.6x    frame= 3462 fps=395 q=-0.0 size=N/A time=00:02:24.39 bitrate=N/A speed=16.5x    frame= 3660 fps=395 q=-0.0 size=N/A time=00:02:32.65 bitrate=N/A speed=16.5x    frame= 3847 fps=393 q=-0.0 size=N/A time=00:02:40.45 bitrate=N/A speed=16.4x    frame= 4035 fps=392 q=-0.0 size=N/A time=00:02:48.29 bitrate=N/A speed=16.3x    frame= 4307 fps=398 q=-0.0 size=N/A time=00:02:59.63 bitrate=N/A speed=16.6x    frame= 4529 fps=400 q=-0.0 size=N/A time=00:03:08.89 bitrate=N/A speed=16.7x    frame= 4761 fps=401 q=-0.0 size=N/A time=00:03:18.57 bitrate=N/A speed=16.7x    frame= 5007 fps=405 q=-0.0 size=N/A time=00:03:28.83 bitrate=N/A speed=16.9x    frame= 5272 fps=409 q=-0.0 size=N/A time=00:03:39.88 bitrate=N/A speed=17.1x    frame= 5544 fps=413 q=-0.0 size=N/A time=00:03:51.23 bitrate=N/A speed=17.2x    frame= 5810 fps=417 q=-0.0 size=N/A time=00:04:02.32 bitrate=N/A speed=17.4x    frame= 6066 fps=420 q=-0.0 size=N/A time=00:04:13.00 bitrate=N/A speed=17.5x    frame= 6336 fps=424 q=-0.0 size=N/A time=00:04:24.26 bitrate=N/A speed=17.7x    frame= 6604 fps=427 q=-0.0 size=N/A time=00:04:35.44 bitrate=N/A speed=17.8x    frame= 6769 fps=423 q=-0.0 size=N/A time=00:04:42.32 bitrate=N/A speed=17.7x    frame= 6977 fps=422 q=-0.0 size=N/A time=00:04:50.99 bitrate=N/A speed=17.6x    frame= 7225 fps=424 q=-0.0 size=N/A time=00:05:01.34 bitrate=N/A speed=17.7x    frame= 7494 fps=427 q=-0.0 size=N/A time=00:05:12.56 bitrate=N/A speed=17.8x    frame= 7756 fps=429 q=-0.0 size=N/A time=00:05:23.48 bitrate=N/A speed=17.9x    frame= 8001 fps=430 q=-0.0 size=N/A time=00:05:33.70 bitrate=N/A speed=  18x    frame= 8235 fps=431 q=-0.0 size=N/A time=00:05:43.46 bitrate=N/A speed=  18x    frame= 8469 fps=432 q=-0.0 size=N/A time=00:05:53.22 bitrate=N/A speed=  18x    frame= 8688 fps=432 q=-0.0 size=N/A time=00:06:02.36 bitrate=N/A speed=  18x    frame= 8922 fps=432 q=-0.0 size=N/A time=00:06:12.12 bitrate=N/A speed=  18x    frame= 9171 fps=433 q=-0.0 size=N/A time=00:06:22.50 bitrate=N/A speed=18.1x    frame= 9425 fps=435 q=-0.0 size=N/A time=00:06:33.10 bitrate=N/A speed=18.1x    frame= 9661 fps=435 q=-0.0 size=N/A time=00:06:42.94 bitrate=N/A speed=18.2x    frame= 9898 fps=436 q=-0.0 size=N/A time=00:06:52.82 bitrate=N/A speed=18.2x    frame=10134 fps=436 q=-0.0 size=N/A time=00:07:02.67 bitrate=N/A speed=18.2x    frame=10371 fps=437 q=-0.0 size=N/A time=00:07:12.55 bitrate=N/A speed=18.2x    frame=10618 fps=437 q=-0.0 size=N/A time=00:07:22.85 bitrate=N/A speed=18.2x    frame=10847 fps=437 q=-0.0 size=N/A time=00:07:32.41 bitrate=N/A speed=18.2x    frame=11091 fps=438 q=-0.0 size=N/A time=00:07:42.58 bitrate=N/A speed=18.3x    frame=11362 fps=440 q=-0.0 size=N/A time=00:07:53.89 bitrate=N/A speed=18.3x    frame=11631 fps=442 q=-0.0 size=N/A time=00:08:05.10 bitrate=N/A speed=18.4x    frame=11870 fps=442 q=-0.0 size=N/A time=00:08:15.07 bitrate=N/A speed=18.4x    frame=12077 fps=441 q=-0.0 size=N/A time=00:08:23.71 bitrate=N/A speed=18.4x    frame=12303 fps=441 q=-0.0 size=N/A time=00:08:33.13 bitrate=N/A speed=18.4x    frame=12514 fps=441 q=-0.0 size=N/A time=00:08:41.93 bitrate=N/A speed=18.4x    frame=12713 fps=440 q=-0.0 size=N/A time=00:08:50.23 bitrate=N/A speed=18.3x    frame=12924 fps=439 q=-0.0 size=N/A time=00:08:59.03 bitrate=N/A speed=18.3x    frame=13110 fps=438 q=-0.0 size=N/A time=00:09:06.79 bitrate=N/A speed=18.3x    frame=13302 fps=437 q=-0.0 size=N/A time=00:09:14.80 bitrate=N/A speed=18.2x    frame=13548 fps=437 q=-0.0 size=N/A time=00:09:25.06 bitrate=N/A speed=18.2x    frame=13819 fps=439 q=-0.0 size=N/A time=00:09:36.36 bitrate=N/A speed=18.3x    frame=14063 fps=439 q=-0.0 size=N/A time=00:09:46.54 bitrate=N/A speed=18.3x    frame=14305 fps=440 q=-0.0 size=N/A time=00:09:56.63 bitrate=N/A speed=18.3x    frame=14498 fps=439 q=-0.0 size=N/A time=00:10:04.68 bitrate=N/A speed=18.3x    frame=14707 fps=438 q=-0.0 size=N/A time=00:10:13.40 bitrate=N/A speed=18.3x    frame=14974 fps=439 q=-0.0 size=N/A time=00:10:24.54 bitrate=N/A speed=18.3x    frame=15217 fps=440 q=-0.0 size=N/A time=00:10:34.67 bitrate=N/A speed=18.3x    frame=15494 fps=441 q=-0.0 size=N/A time=00:10:46.22 bitrate=N/A speed=18.4x    frame=15743 fps=442 q=-0.0 size=N/A time=00:10:56.61 bitrate=N/A speed=18.4x    frame=15983 fps=442 q=-0.0 size=N/A time=00:11:06.62 bitrate=N/A speed=18.4x    frame=16257 fps=443 q=-0.0 size=N/A time=00:11:18.05 bitrate=N/A speed=18.5x    frame=16526 fps=444 q=-0.0 size=N/A time=00:11:29.27 bitrate=N/A speed=18.5x    frame=16785 fps=445 q=-0.0 size=N/A time=00:11:40.07 bitrate=N/A speed=18.6x    frame=17029 fps=446 q=-0.0 size=N/A time=00:11:50.25 bitrate=N/A speed=18.6x    frame=17244 fps=445 q=-0.0 size=N/A time=00:11:59.21 bitrate=N/A speed=18.6x    frame=17452 fps=445 q=-0.0 size=N/A time=00:12:07.89 bitrate=N/A speed=18.6x    frame=17648 fps=444 q=-0.0 size=N/A time=00:12:16.06 bitrate=N/A speed=18.5x    frame=17906 fps=445 q=-0.0 size=N/A time=00:12:26.82 bitrate=N/A speed=18.5x    frame=18128 fps=444 q=-0.0 size=N/A time=00:12:36.08 bitrate=N/A speed=18.5x    frame=18371 fps=445 q=-0.0 size=N/A time=00:12:46.22 bitrate=N/A speed=18.6x    frame=18613 fps=445 q=-0.0 size=N/A time=00:12:56.31 bitrate=N/A speed=18.6x    frame=18841 fps=445 q=-0.0 size=N/A time=00:13:05.82 bitrate=N/A speed=18.6x    frame=19097 fps=446 q=-0.0 size=N/A time=00:13:16.50 bitrate=N/A speed=18.6x    frame=19317 fps=445 q=-0.0 size=N/A time=00:13:25.67 bitrate=N/A speed=18.6x    frame=19573 fps=446 q=-0.0 size=N/A time=00:13:36.35 bitrate=N/A speed=18.6x    frame=19818 fps=446 q=-0.0 size=N/A time=00:13:46.57 bitrate=N/A speed=18.6x    frame=20056 fps=446 q=-0.0 size=N/A time=00:13:56.50 bitrate=N/A speed=18.6x    frame=20275 fps=446 q=-0.0 size=N/A time=00:14:05.63 bitrate=N/A speed=18.6x    frame=20548 fps=447 q=-0.0 size=N/A time=00:14:17.02 bitrate=N/A speed=18.6x    frame=20768 fps=447 q=-0.0 size=N/A time=00:14:26.19 bitrate=N/A speed=18.6x    frame=21007 fps=447 q=-0.0 size=N/A time=00:14:36.16 bitrate=N/A speed=18.6x    frame=21229 fps=447 q=-0.0 size=N/A time=00:14:45.42 bitrate=N/A speed=18.6x    frame=21452 fps=447 q=-0.0 size=N/A time=00:14:54.72 bitrate=N/A speed=18.6x    frame=21698 fps=447 q=-0.0 size=N/A time=00:15:04.98 bitrate=N/A speed=18.6x    frame=21941 fps=447 q=-0.0 size=N/A time=00:15:15.12 bitrate=N/A speed=18.7x    frame=22138 fps=447 q=-0.0 size=N/A time=00:15:23.33 bitrate=N/A speed=18.6x    frame=22365 fps=447 q=-0.0 size=N/A time=00:15:32.80 bitrate=N/A speed=18.6x    frame=22572 fps=446 q=-0.0 size=N/A time=00:15:41.44 bitrate=N/A speed=18.6x    frame=22819 fps=446 q=-0.0 size=N/A time=00:15:51.74 bitrate=N/A speed=18.6x    frame=23091 fps=447 q=-0.0 size=N/A time=00:16:03.08 bitrate=N/A speed=18.7x    frame=23329 fps=447 q=-0.0 size=N/A time=00:16:13.01 bitrate=N/A speed=18.7x    frame=23596 fps=448 q=-0.0 size=N/A time=00:16:24.14 bitrate=N/A speed=18.7x    frame=23853 fps=448 q=-0.0 size=N/A time=00:16:34.86 bitrate=N/A speed=18.7x    frame=24114 fps=449 q=-0.0 size=N/A time=00:16:45.75 bitrate=N/A speed=18.7x    frame=24388 fps=450 q=-0.0 size=N/A time=00:16:57.18 bitrate=N/A speed=18.8x    frame=24644 fps=450 q=-0.0 size=N/A time=00:17:07.86 bitrate=N/A speed=18.8x    frame=24915 fps=451 q=-0.0 size=N/A time=00:17:19.16 bitrate=N/A speed=18.8x    frame=25111 fps=450 q=-0.0 size=N/A time=00:17:27.33 bitrate=N/A speed=18.8x    frame=25313 fps=450 q=-0.0 size=N/A time=00:17:35.76 bitrate=N/A speed=18.8x    frame=25502 fps=449 q=-0.0 size=N/A time=00:17:43.64 bitrate=N/A speed=18.7x    frame=25695 fps=448 q=-0.0 size=N/A time=00:17:51.69 bitrate=N/A speed=18.7x    frame=25925 fps=448 q=-0.0 size=N/A time=00:18:01.28 bitrate=N/A speed=18.7x    frame=26146 fps=448 q=-0.0 size=N/A time=00:18:10.50 bitrate=N/A speed=18.7x    frame=26358 fps=448 q=-0.0 size=N/A time=00:18:19.34 bitrate=N/A speed=18.7x    frame=26592 fps=448 q=-0.0 size=N/A time=00:18:29.10 bitrate=N/A speed=18.7x    frame=26854 fps=448 q=-0.0 size=N/A time=00:18:40.03 bitrate=N/A speed=18.7x    frame=27095 fps=449 q=-0.0 size=N/A time=00:18:50.08 bitrate=N/A speed=18.7x    frame=27301 fps=448 q=-0.0 size=N/A time=00:18:58.67 bitrate=N/A speed=18.7x    frame=27552 fps=448 q=-0.0 size=N/A time=00:19:09.14 bitrate=N/A speed=18.7x    frame=27784 fps=448 q=-0.0 size=N/A time=00:19:18.82 bitrate=N/A speed=18.7x    frame=28038 fps=449 q=-0.0 size=N/A time=00:19:29.41 bitrate=N/A speed=18.7x    frame=28299 fps=449 q=-0.0 size=N/A time=00:19:40.30 bitrate=N/A speed=18.7x    frame=28538 fps=449 q=-0.0 size=N/A time=00:19:50.27 bitrate=N/A speed=18.7x    frame=28782 fps=450 q=-0.0 size=N/A time=00:20:00.44 bitrate=N/A speed=18.8x    frame=28983 fps=449 q=-0.0 size=N/A time=00:20:08.83 bitrate=N/A speed=18.7x    frame=29147 fps=448 q=-0.0 size=N/A time=00:20:15.67 bitrate=N/A speed=18.7x    frame=29405 fps=448 q=-0.0 size=N/A time=00:20:26.43 bitrate=N/A speed=18.7x    frame=29665 fps=449 q=-0.0 size=N/A time=00:20:37.27 bitrate=N/A speed=18.7x    frame=29902 fps=449 q=-0.0 size=N/A time=00:20:47.16 bitrate=N/A speed=18.7x    frame=30084 fps=448 q=-0.0 size=N/A time=00:20:54.75 bitrate=N/A speed=18.7x    frame=30314 fps=448 q=-0.0 size=N/A time=00:21:04.34 bitrate=N/A speed=18.7x    frame=30567 fps=448 q=-0.0 size=N/A time=00:21:14.89 bitrate=N/A speed=18.7x    frame=30790 fps=448 q=-0.0 size=N/A time=00:21:24.19 bitrate=N/A speed=18.7x    frame=31031 fps=448 q=-0.0 size=N/A time=00:21:34.25 bitrate=N/A speed=18.7x    frame=31234 fps=448 q=-0.0 size=N/A time=00:21:42.71 bitrate=N/A speed=18.7x    frame=31430 fps=448 q=-0.0 size=N/A time=00:21:50.89 bitrate=N/A speed=18.7x    frame=31609 fps=447 q=-0.0 size=N/A time=00:21:58.35 bitrate=N/A speed=18.6x    frame=31784 fps=446 q=-0.0 size=N/A time=00:22:05.65 bitrate=N/A speed=18.6x    frame=31990 fps=446 q=-0.0 size=N/A time=00:22:14.24 bitrate=N/A speed=18.6x    frame=32154 fps=445 q=-0.0 size=N/A time=00:22:21.08 bitrate=N/A speed=18.6x    frame=32376 fps=445 q=-0.0 size=N/A time=00:22:30.34 bitrate=N/A speed=18.5x    frame=32625 fps=445 q=-0.0 size=N/A time=00:22:40.73 bitrate=N/A speed=18.6x    frame=32878 fps=445 q=-0.0 size=N/A time=00:22:51.28 bitrate=N/A speed=18.6x    frame=33130 fps=446 q=-0.0 size=N/A time=00:23:01.79 bitrate=N/A speed=18.6x    frame=33329 fps=445 q=-0.0 size=N/A time=00:23:10.09 bitrate=N/A speed=18.6x    frame=33562 fps=445 q=-0.0 size=N/A time=00:23:19.81 bitrate=N/A speed=18.6x    frame=33791 fps=445 q=-0.0 size=N/A time=00:23:29.36 bitrate=N/A speed=18.6x    frame=33976 fps=445 q=-0.0 size=N/A time=00:23:37.08 bitrate=N/A speed=18.5x    frame=34249 fps=445 q=-0.0 size=N/A time=00:23:48.46 bitrate=N/A speed=18.6x    [Parsed_ssim_10 @ 000001b94361e180] SSIM Y:0.993400 (21.804491) U:0.993621 (21.952515) V:0.993459 (21.843378) All:0.993447 (21.835307)
[out#0/null @ 000001b93621eec0] video:14769KiB audio:269388KiB subtitle:0KiB other streams:0KiB global headers:0KiB muxing overhead: unknown
frame=34372 fps=445 q=-0.0 Lsize=N/A time=00:23:53.59 bitrate=N/A speed=18.6x    
